<svg id="Layer_1" data-name="Layer 1" xmlns="http://www.w3.org/2000/svg" viewBox="0 0 100 100"><defs><style>.cls-1{fill:none;stroke:#fff;stroke-miterlimit:10;stroke-width:4px;}.cls-2{fill:#fff;}</style></defs><circle class="cls-1" cx="50" cy="50" r="10.32"/><rect class="cls-2" x="47.9" y="25.99" width="4.31" height="9.78" rx="2.16"/><rect class="cls-2" x="47.9" y="64.23" width="4.31" height="9.78" rx="2.16"/><rect class="cls-2" x="66.96" y="45.11" width="4.31" height="9.78" rx="2.16" transform="translate(119.12 -19.12) rotate(90)"/><rect class="cls-2" x="28.73" y="45.11" width="4.31" height="9.78" rx="2.16" transform="translate(80.88 19.12) rotate(90)"/><rect class="cls-2" x="61.4" y="31.63" width="4.31" height="9.78" rx="2.16" transform="translate(44.44 -34.24) rotate(45)"/><rect class="cls-2" x="34.36" y="58.66" width="4.31" height="9.78" rx="2.16" transform="translate(55.64 -7.21) rotate(45)"/><rect class="cls-2" x="61.36" y="58.63" width="4.31" height="9.78" rx="2.16" transform="translate(153.34 63.52) rotate(135)"/><rect class="cls-2" x="34.33" y="31.59" width="4.31" height="9.78" rx="2.16" transform="translate(88.08 36.48) rotate(135)"/></svg>