<svg id="Layer_1" data-name="Layer 1" xmlns="http://www.w3.org/2000/svg" viewBox="0 0 100 100"><defs><style>.cls-1{fill:#fff;stroke:#0069aa;stroke-miterlimit:10;}</style></defs><path class="cls-1" d="M50,62.32A12.32,12.32,0,1,1,62.32,50,12.34,12.34,0,0,1,50,62.32Zm0-20.64A8.32,8.32,0,1,0,58.32,50,8.33,8.33,0,0,0,50,41.68Z"/><rect class="cls-1" x="47.9" y="25.99" width="4.31" height="9.78" rx="2.15"/><rect class="cls-1" x="47.9" y="64.23" width="4.31" height="9.78" rx="2.15"/><path class="cls-1" d="M74,50h0a2.16,2.16,0,0,1-2.16,2.16H66.39A2.16,2.16,0,0,1,64.23,50h0a2.16,2.16,0,0,1,2.16-2.15h5.46A2.16,2.16,0,0,1,74,50Z"/><path class="cls-1" d="M35.77,50h0a2.16,2.16,0,0,1-2.16,2.15H28.15A2.16,2.16,0,0,1,26,50h0a2.16,2.16,0,0,1,2.16-2.16h5.46A2.16,2.16,0,0,1,35.77,50Z"/><path class="cls-1" d="M67,33.07h0a2.15,2.15,0,0,1,0,3L63.15,40a2.16,2.16,0,0,1-3,0h0a2.16,2.16,0,0,1,0-3L64,33.07A2.15,2.15,0,0,1,67,33.07Z"/><path class="cls-1" d="M40,60.09h0a2.16,2.16,0,0,1,0,3L36.12,67a2.15,2.15,0,0,1-3,0h0a2.15,2.15,0,0,1,0-3l3.86-3.86A2.16,2.16,0,0,1,40,60.09Z"/><path class="cls-1" d="M67,67h0a2.15,2.15,0,0,1-3,0l-3.86-3.86a2.15,2.15,0,0,1,0-3h0a2.17,2.17,0,0,1,3.06,0L67,63.92A2.16,2.16,0,0,1,67,67Z"/><path class="cls-1" d="M39.94,39.94h0a2.16,2.16,0,0,1-3,0L33,36.08a2.16,2.16,0,0,1,0-3h0a2.15,2.15,0,0,1,3,0l3.86,3.86A2.15,2.15,0,0,1,39.94,39.94Z"/></svg>